<?xml version="1.0" standalone="no"?>
<!DOCTYPE svg PUBLIC "-//W3C//DTD SVG 20010904//EN"
 "http://www.w3.org/TR/2001/REC-SVG-20010904/DTD/svg10.dtd">
<svg version="1.0" xmlns="http://www.w3.org/2000/svg"
 width="96.000000pt" height="96.000000pt" viewBox="0 0 96.000000 96.000000"
 preserveAspectRatio="xMidYMid meet">

<g transform="translate(0.000000,96.000000) scale(0.100000,-0.100000)"
fill="#000000" stroke="none">
<path d="M436 769 c-49 -12 -101 -50 -121 -89 -21 -41 -19 -118 5 -157 25 -41
56 -57 155 -77 91 -19 129 -41 133 -80 11 -90 -149 -130 -213 -54 -14 16 -25
34 -25 39 0 5 -18 9 -40 9 -37 0 -40 -2 -40 -26 0 -40 34 -87 82 -114 62 -36
174 -36 238 0 79 44 113 148 70 217 -28 46 -61 64 -158 85 -48 10 -98 26 -112
37 -37 27 -38 65 -1 101 24 25 38 30 76 30 57 0 103 -23 111 -55 5 -22 12 -25
49 -25 l43 0 -8 33 c-11 50 -37 84 -83 106 -53 25 -111 33 -161 20z"/>
<path d="M50 465 c0 -72 26 -164 64 -223 38 -60 121 -131 194 -165 63 -30 73
-32 182 -32 108 0 119 2 180 31 123 59 213 166 245 291 19 76 17 157 -5 161
-12 2 -15 -9 -16 -47 -4 -119 -81 -261 -176 -323 -144 -94 -282 -101 -431 -20
-113 61 -206 221 -207 355 0 26 -4 37 -15 37 -12 0 -15 -14 -15 -65z"/>
</g>
</svg>
